<svg width="125" height="125" viewBox="0 0 125 125" fill="none" xmlns="http://www.w3.org/2000/svg">
<g clip-path="url(#clip0_3_732)">
<mask id="mask0_3_732" style="mask-type:luminance" maskUnits="userSpaceOnUse" x="0" y="0" width="125" height="125">
<path d="M125 0H0V125H125V0Z" fill="white"/>
</mask>
<g mask="url(#mask0_3_732)">
<path d="M102.778 0H22.2222C9.94923 0 0 9.94923 0 22.2222V102.778C0 115.051 9.94923 125 22.2222 125H102.778C115.051 125 125 115.051 125 102.778V22.2222C125 9.94923 115.051 0 102.778 0Z" fill="#3B82F6"/>
<path d="M38.7872 51.8292H37.4322C33.5969 51.8292 30.4878 54.9383 30.4878 58.7736V96.7139C30.4878 100.549 33.5969 103.658 37.4322 103.658H38.7872C42.6225 103.658 45.7317 100.549 45.7317 96.7139V58.7736C45.7317 54.9383 42.6225 51.8292 38.7872 51.8292Z" fill="white"/>
<path d="M63.1775 24.3903H61.8225C57.9872 24.3903 54.8781 27.4994 54.8781 31.3347V96.7141C54.8781 100.549 57.9872 103.659 61.8225 103.659H63.1775C67.0128 103.659 70.122 100.549 70.122 96.7141V31.3347C70.122 27.4994 67.0128 24.3903 63.1775 24.3903Z" fill="white"/>
<path d="M87.5678 36.5853H86.2128C82.3775 36.5853 79.2683 39.6944 79.2683 43.5297V96.7139C79.2683 100.549 82.3775 103.658 86.2128 103.658H87.5678C91.4031 103.658 94.5122 100.549 94.5122 96.7139V43.5297C94.5122 39.6944 91.4031 36.5853 87.5678 36.5853Z" fill="white"/>
</g>
</g>
<defs>
<clipPath id="clip0_3_732">
<rect width="125" height="125" fill="white"/>
</clipPath>
</defs>
</svg>
